<svg width="80" height="80" viewBox="0 0 80 80" fill="none" xmlns="http://www.w3.org/2000/svg">
<path d="M40 70C56.5685 70 70 56.5685 70 40C70 23.4315 56.5685 10 40 10C23.4315 10 10 23.4315 10 40C10 56.5685 23.4315 70 40 70Z" stroke="white" stroke-width="2" stroke-miterlimit="10"/>
<path d="M40 50C46.9036 50 52.5 44.4036 52.5 37.5C52.5 30.5964 46.9036 25 40 25C33.0964 25 27.5 30.5964 27.5 37.5C27.5 44.4036 33.0964 50 40 50Z" stroke="white" stroke-width="2" stroke-miterlimit="10"/>
<path d="M19.937 62.3044C21.8202 58.6019 24.6911 55.4928 28.2321 53.3211C31.7731 51.1495 35.8459 50 39.9998 50C44.1536 50 48.2265 51.1494 51.7674 53.3211C55.3084 55.4927 58.1794 58.6019 60.0626 62.3043" stroke="white" stroke-width="2" stroke-linecap="round" stroke-linejoin="round"/>
</svg>
